<?xml version="1.0" encoding="UTF-8" standalone="no"?>
<!-- Created with Inkscape (http://www.inkscape.org/) -->

<svg
   width="11.868477mm"
   height="6.5422468mm"
   viewBox="0 0 11.868477 6.5422468"
   version="1.1"
   id="svg5355"
   xmlns="http://www.w3.org/2000/svg"
   xmlns:svg="http://www.w3.org/2000/svg">
  <defs
     id="defs5352" />
  <g
     id="layer1"
     transform="translate(-98.971027,-144.70782)">
    <g
       id="g4413"
       transform="translate(-23.755104,-63.747177)">
      <g
         aria-label="BLB"
         id="text520"
         style="font-size:5.64444px;font-family:'Roboto Slab';-inkscape-font-specification:'Roboto Slab, Normal';fill:#ffffff;stroke-width:0.174">
        <path
           d="m 123.54234,213.73254 v -0.23977 l 0.44924,-0.0358 v -3.45888 l -0.44924,-0.0358 v -0.24253 h 0.44924 1.15755 q 0.62563,0 0.97565,0.26458 0.35002,0.26183 0.35002,0.791 0,0.31419 -0.17914,0.5457 -0.17639,0.22875 -0.48783,0.30868 0.24805,0.0413 0.43546,0.1819 0.19017,0.14056 0.2949,0.35002 0.10749,0.20671 0.10749,0.452 0,0.54019 -0.35002,0.82958 -0.34727,0.28938 -0.9288,0.28938 z m 0.77997,-0.2756 h 1.04455 q 0.44373,0 0.69453,-0.22049 0.25356,-0.22049 0.25356,-0.61736 0,-0.23978 -0.10197,-0.42444 -0.10198,-0.18741 -0.30317,-0.29214 -0.2012,-0.10473 -0.49058,-0.10473 h -1.09692 z m 0,-1.93752 h 0.92328 q 0.42995,0 0.66146,-0.19293 0.23427,-0.19292 0.23427,-0.56224 0,-0.38309 -0.25356,-0.57326 -0.2508,-0.19293 -0.73863,-0.19293 h -0.82682 z"
           style="font-weight:300;-inkscape-font-specification:'Roboto Slab, Light'"
           id="path5866" />
        <path
           d="m 127.07563,213.73254 v -0.23977 l 0.44924,-0.0358 v -3.45888 l -0.44924,-0.0358 v -0.24253 h 0.44924 0.33073 0.44924 v 0.24253 l -0.44924,0.0358 v 3.46163 h 1.68396 l 0.0303,-0.64767 h 0.2701 v 0.92052 z"
           style="font-weight:300;-inkscape-font-specification:'Roboto Slab, Light'"
           id="path5868" />
        <path
           d="m 130.33882,213.73254 v -0.23977 l 0.44924,-0.0358 v -3.45888 l -0.44924,-0.0358 v -0.24253 h 0.44924 1.15755 q 0.62563,0 0.97565,0.26458 0.35002,0.26183 0.35002,0.791 0,0.31419 -0.17914,0.5457 -0.17639,0.22875 -0.48783,0.30868 0.24805,0.0413 0.43546,0.1819 0.19017,0.14056 0.2949,0.35002 0.10749,0.20671 0.10749,0.452 0,0.54019 -0.35002,0.82958 -0.34727,0.28938 -0.9288,0.28938 z m 0.77997,-0.2756 h 1.04455 q 0.44373,0 0.69453,-0.22049 0.25356,-0.22049 0.25356,-0.61736 0,-0.23978 -0.10198,-0.42444 -0.10197,-0.18741 -0.30316,-0.29214 -0.2012,-0.10473 -0.49058,-0.10473 h -1.09692 z m 0,-1.93752 h 0.92328 q 0.42995,0 0.66146,-0.19293 0.23427,-0.19292 0.23427,-0.56224 0,-0.38309 -0.25356,-0.57326 -0.2508,-0.19293 -0.73863,-0.19293 h -0.82682 z"
           style="font-weight:300;-inkscape-font-specification:'Roboto Slab, Light'"
           id="path5870" />
      </g>
      <path
         id="rect1389"
         style="fill:none;stroke:#ffffff;stroke-width:0.273097"
         d="m 122.86268,208.59155 h 11.59538 v 6.26915 h -11.59538 z" />
    </g>
  </g>
</svg>
