<?xml version="1.0" standalone="no"?>
<!DOCTYPE svg PUBLIC "-//W3C//DTD SVG 20010904//EN"
 "http://www.w3.org/TR/2001/REC-SVG-20010904/DTD/svg10.dtd">
<svg version="1.0" xmlns="http://www.w3.org/2000/svg"
 width="512.000000pt" height="512.000000pt" viewBox="0 0 512.000000 512.000000"
 preserveAspectRatio="xMidYMid meet">
<metadata>
Created by potrace 1.14, written by Peter Selinger 2001-2017
</metadata>
<g transform="translate(0.000000,512.000000) scale(0.100000,-0.100000)"
fill="#000000" stroke="none">
<path d="M0 2560 l0 -2560 2560 0 2560 0 0 2560 0 2560 -2560 0 -2560 0 0
-2560z m2885 1282 c242 -46 380 -107 491 -217 120 -119 166 -247 166 -460 -1
-138 -15 -204 -67 -312 -76 -155 -222 -267 -414 -316 -29 -7 -53 -17 -54 -21
-1 -4 39 -18 89 -31 290 -73 455 -217 520 -455 14 -49 18 -101 18 -210 0 -170
-15 -241 -76 -370 -34 -70 -56 -100 -132 -175 -73 -73 -109 -100 -181 -137
-99 -50 -182 -80 -295 -105 -64 -14 -166 -17 -682 -20 l-608 -4 0 1431 0 1432
558 -5 c511 -4 566 -6 667 -25z"/>
<path d="M1990 3111 l0 -471 318 0 c414 0 544 15 671 77 158 76 243 270 213
483 -28 193 -128 293 -356 352 -74 19 -115 22 -463 25 l-383 5 0 -471z"/>
<path d="M1990 1831 l0 -531 383 0 c338 0 393 2 476 20 272 56 412 214 428
482 17 291 -119 464 -418 530 -83 18 -138 21 -481 25 l-388 5 0 -531z"/>
</g>
</svg>
